<mxfile host="app.diagrams.net" modified="2022-02-04T17:52:25.164Z" agent="5.0 (X11; Linux x86_64) AppleWebKit/537.36 (KHTML, like Gecko) Chrome/96.0.4664.110 Safari/537.36" etag="w1YI_QNVsCadyHE5ma-1" version="16.5.3" type="github">
  <diagram id="ETh1H7iXX4JkjU-012xh" name="Page-1">
    <mxGraphModel dx="813" dy="451" grid="1" gridSize="10" guides="1" tooltips="1" connect="1" arrows="1" fold="1" page="1" pageScale="1" pageWidth="827" pageHeight="1169" math="0" shadow="0">
      <root>
        <mxCell id="0" />
        <mxCell id="1" parent="0" />
        <mxCell id="-7Wv61GkTQfXhzGBz33f-6" style="edgeStyle=orthogonalEdgeStyle;rounded=0;orthogonalLoop=1;jettySize=auto;html=1;dashed=1;" parent="1" source="-7Wv61GkTQfXhzGBz33f-1" target="-7Wv61GkTQfXhzGBz33f-3" edge="1">
          <mxGeometry relative="1" as="geometry" />
        </mxCell>
        <mxCell id="-7Wv61GkTQfXhzGBz33f-1" value="Техник" style="shape=umlActor;verticalLabelPosition=bottom;verticalAlign=top;html=1;outlineConnect=0;" parent="1" vertex="1">
          <mxGeometry x="40" y="10" width="30" height="60" as="geometry" />
        </mxCell>
        <mxCell id="-7Wv61GkTQfXhzGBz33f-7" style="edgeStyle=orthogonalEdgeStyle;rounded=0;orthogonalLoop=1;jettySize=auto;html=1;dashed=1;" parent="1" source="-7Wv61GkTQfXhzGBz33f-2" target="-7Wv61GkTQfXhzGBz33f-3" edge="1">
          <mxGeometry relative="1" as="geometry" />
        </mxCell>
        <mxCell id="-7Wv61GkTQfXhzGBz33f-20" style="edgeStyle=orthogonalEdgeStyle;rounded=0;orthogonalLoop=1;jettySize=auto;html=1;entryX=0;entryY=0.5;entryDx=0;entryDy=0;fontSize=7;endArrow=classic;endFill=1;" parent="1" source="-7Wv61GkTQfXhzGBz33f-2" target="-7Wv61GkTQfXhzGBz33f-19" edge="1">
          <mxGeometry relative="1" as="geometry" />
        </mxCell>
        <mxCell id="-7Wv61GkTQfXhzGBz33f-2" value="Администратор" style="shape=umlActor;verticalLabelPosition=bottom;verticalAlign=top;html=1;outlineConnect=0;" parent="1" vertex="1">
          <mxGeometry x="40" y="130" width="30" height="60" as="geometry" />
        </mxCell>
        <mxCell id="-7Wv61GkTQfXhzGBz33f-10" style="edgeStyle=orthogonalEdgeStyle;rounded=0;orthogonalLoop=1;jettySize=auto;html=1;entryX=0;entryY=0.5;entryDx=0;entryDy=0;fontSize=7;endArrow=none;endFill=0;" parent="1" source="-7Wv61GkTQfXhzGBz33f-3" target="-7Wv61GkTQfXhzGBz33f-8" edge="1">
          <mxGeometry relative="1" as="geometry" />
        </mxCell>
        <mxCell id="-7Wv61GkTQfXhzGBz33f-23" style="edgeStyle=orthogonalEdgeStyle;rounded=0;orthogonalLoop=1;jettySize=auto;html=1;entryX=0;entryY=0.5;entryDx=0;entryDy=0;fontSize=7;endArrow=classic;endFill=1;" parent="1" source="-7Wv61GkTQfXhzGBz33f-3" target="-7Wv61GkTQfXhzGBz33f-22" edge="1">
          <mxGeometry relative="1" as="geometry">
            <Array as="points">
              <mxPoint x="200" y="100" />
              <mxPoint x="200" y="60" />
            </Array>
          </mxGeometry>
        </mxCell>
        <mxCell id="-7Wv61GkTQfXhzGBz33f-3" value="Пользователь" style="shape=umlActor;verticalLabelPosition=bottom;verticalAlign=top;html=1;outlineConnect=0;" parent="1" vertex="1">
          <mxGeometry x="140" y="70" width="30" height="60" as="geometry" />
        </mxCell>
        <mxCell id="-7Wv61GkTQfXhzGBz33f-15" style="rounded=0;orthogonalLoop=1;jettySize=auto;html=1;entryX=0;entryY=0.5;entryDx=0;entryDy=0;dashed=1;fontSize=7;endArrow=classic;endFill=1;edgeStyle=orthogonalEdgeStyle;" parent="1" source="-7Wv61GkTQfXhzGBz33f-8" target="-7Wv61GkTQfXhzGBz33f-14" edge="1">
          <mxGeometry relative="1" as="geometry" />
        </mxCell>
        <mxCell id="-7Wv61GkTQfXhzGBz33f-8" value="&lt;font style=&quot;font-size: 7px&quot;&gt;Просмотр списка компьютерной техники&lt;/font&gt;" style="ellipse;whiteSpace=wrap;html=1;" parent="1" vertex="1">
          <mxGeometry x="230" y="105" width="90" height="60" as="geometry" />
        </mxCell>
        <mxCell id="-7Wv61GkTQfXhzGBz33f-14" value="Фильтрация и поиск" style="ellipse;whiteSpace=wrap;html=1;fontSize=7;" parent="1" vertex="1">
          <mxGeometry x="360" y="150" width="60" height="40" as="geometry" />
        </mxCell>
        <mxCell id="-7Wv61GkTQfXhzGBz33f-16" value="Include" style="text;html=1;align=center;verticalAlign=middle;resizable=0;points=[];autosize=1;strokeColor=none;fillColor=none;fontSize=7;" parent="1" vertex="1">
          <mxGeometry x="320" y="150" width="40" height="10" as="geometry" />
        </mxCell>
        <mxCell id="-7Wv61GkTQfXhzGBz33f-19" value="Редактирование пользователей в системе" style="ellipse;whiteSpace=wrap;html=1;fontSize=7;" parent="1" vertex="1">
          <mxGeometry x="170" y="210" width="90" height="50" as="geometry" />
        </mxCell>
        <mxCell id="-7Wv61GkTQfXhzGBz33f-22" value="Актуализация информации об устройствах" style="ellipse;whiteSpace=wrap;html=1;fontSize=7;" parent="1" vertex="1">
          <mxGeometry x="240" y="40" width="60" height="40" as="geometry" />
        </mxCell>
        <mxCell id="-7Wv61GkTQfXhzGBz33f-24" value="Пользователь" style="shape=umlActor;verticalLabelPosition=bottom;verticalAlign=top;html=1;outlineConnect=0;fontSize=7;" parent="1" vertex="1">
          <mxGeometry x="40" y="400" width="30" height="60" as="geometry" />
        </mxCell>
        <mxCell id="-7Wv61GkTQfXhzGBz33f-26" style="edgeStyle=orthogonalEdgeStyle;rounded=0;orthogonalLoop=1;jettySize=auto;html=1;fontSize=7;endArrow=classic;endFill=1;entryX=-0.029;entryY=0.125;entryDx=0;entryDy=0;entryPerimeter=0;" parent="1" target="-7Wv61GkTQfXhzGBz33f-31" edge="1">
          <mxGeometry relative="1" as="geometry">
            <mxPoint x="150" y="496" as="targetPoint" />
            <mxPoint x="55" y="495" as="sourcePoint" />
            <Array as="points">
              <mxPoint x="55" y="504" />
            </Array>
          </mxGeometry>
        </mxCell>
        <mxCell id="-7Wv61GkTQfXhzGBz33f-28" value="Авторизация" style="edgeLabel;html=1;align=center;verticalAlign=middle;resizable=0;points=[];fontSize=7;" parent="-7Wv61GkTQfXhzGBz33f-26" vertex="1" connectable="0">
          <mxGeometry x="-0.1998" y="-1" relative="1" as="geometry">
            <mxPoint x="20" as="offset" />
          </mxGeometry>
        </mxCell>
        <mxCell id="-0EF0qrsKoCo8w9vOCdW-14" style="edgeStyle=orthogonalEdgeStyle;rounded=0;orthogonalLoop=1;jettySize=auto;html=1;entryX=0;entryY=0.5;entryDx=0;entryDy=0;fontSize=7;" edge="1" parent="1" source="-7Wv61GkTQfXhzGBz33f-25" target="-0EF0qrsKoCo8w9vOCdW-13">
          <mxGeometry relative="1" as="geometry">
            <Array as="points">
              <mxPoint x="100" y="735" />
              <mxPoint x="100" y="735" />
            </Array>
          </mxGeometry>
        </mxCell>
        <mxCell id="-0EF0qrsKoCo8w9vOCdW-15" value="Просмотр списка устройств" style="edgeLabel;html=1;align=center;verticalAlign=middle;resizable=0;points=[];fontSize=7;" vertex="1" connectable="0" parent="-0EF0qrsKoCo8w9vOCdW-14">
          <mxGeometry x="0.066" relative="1" as="geometry">
            <mxPoint as="offset" />
          </mxGeometry>
        </mxCell>
        <mxCell id="-7Wv61GkTQfXhzGBz33f-25" value="" style="rounded=0;whiteSpace=wrap;html=1;fontSize=7;" parent="1" vertex="1">
          <mxGeometry x="50" y="480" width="10" height="360" as="geometry" />
        </mxCell>
        <mxCell id="-7Wv61GkTQfXhzGBz33f-30" style="edgeStyle=orthogonalEdgeStyle;rounded=0;orthogonalLoop=1;jettySize=auto;html=1;dashed=1;fontSize=7;endArrow=classic;endFill=1;startArrow=none;" parent="1" source="-0EF0qrsKoCo8w9vOCdW-8" edge="1">
          <mxGeometry relative="1" as="geometry">
            <mxPoint x="210" y="840" as="targetPoint" />
          </mxGeometry>
        </mxCell>
        <mxCell id="-7Wv61GkTQfXhzGBz33f-29" value="Интерфейс" style="rounded=0;whiteSpace=wrap;html=1;fontSize=7;" parent="1" vertex="1">
          <mxGeometry x="170" y="415" width="80" height="30" as="geometry" />
        </mxCell>
        <mxCell id="-7Wv61GkTQfXhzGBz33f-31" value="" style="rounded=0;whiteSpace=wrap;html=1;fontSize=7;" parent="1" vertex="1">
          <mxGeometry x="205" y="500" width="10" height="30" as="geometry" />
        </mxCell>
        <mxCell id="-7Wv61GkTQfXhzGBz33f-32" value="" style="edgeStyle=orthogonalEdgeStyle;rounded=0;orthogonalLoop=1;jettySize=auto;html=1;dashed=1;fontSize=7;endArrow=none;endFill=1;" parent="1" source="-7Wv61GkTQfXhzGBz33f-29" target="-7Wv61GkTQfXhzGBz33f-31" edge="1">
          <mxGeometry relative="1" as="geometry">
            <mxPoint x="210" y="760" as="targetPoint" />
            <mxPoint x="210" y="445" as="sourcePoint" />
          </mxGeometry>
        </mxCell>
        <mxCell id="-7Wv61GkTQfXhzGBz33f-36" style="edgeStyle=orthogonalEdgeStyle;rounded=0;orthogonalLoop=1;jettySize=auto;html=1;dashed=1;fontSize=7;endArrow=classic;endFill=1;startArrow=none;" parent="1" source="-0EF0qrsKoCo8w9vOCdW-6" edge="1">
          <mxGeometry relative="1" as="geometry">
            <mxPoint x="340" y="840" as="targetPoint" />
          </mxGeometry>
        </mxCell>
        <mxCell id="-7Wv61GkTQfXhzGBz33f-35" value="База данных" style="rounded=0;whiteSpace=wrap;html=1;fontSize=7;" parent="1" vertex="1">
          <mxGeometry x="300" y="415" width="80" height="30" as="geometry" />
        </mxCell>
        <mxCell id="-7Wv61GkTQfXhzGBz33f-45" style="edgeStyle=orthogonalEdgeStyle;rounded=0;orthogonalLoop=1;jettySize=auto;html=1;entryX=-0.114;entryY=0.143;entryDx=0;entryDy=0;entryPerimeter=0;fontSize=7;endArrow=classic;endFill=1;" parent="1" source="-7Wv61GkTQfXhzGBz33f-39" target="-7Wv61GkTQfXhzGBz33f-43" edge="1">
          <mxGeometry relative="1" as="geometry">
            <Array as="points">
              <mxPoint x="275" y="559" />
            </Array>
          </mxGeometry>
        </mxCell>
        <mxCell id="-7Wv61GkTQfXhzGBz33f-46" value="Запрос ключа доступа" style="edgeLabel;html=1;align=center;verticalAlign=middle;resizable=0;points=[];fontSize=7;" parent="-7Wv61GkTQfXhzGBz33f-45" vertex="1" connectable="0">
          <mxGeometry x="0.1923" y="-2" relative="1" as="geometry">
            <mxPoint x="-11" as="offset" />
          </mxGeometry>
        </mxCell>
        <mxCell id="-7Wv61GkTQfXhzGBz33f-43" value="" style="rounded=0;whiteSpace=wrap;html=1;fontSize=7;" parent="1" vertex="1">
          <mxGeometry x="335" y="555" width="10" height="30" as="geometry" />
        </mxCell>
        <mxCell id="-7Wv61GkTQfXhzGBz33f-44" value="" style="edgeStyle=orthogonalEdgeStyle;rounded=0;orthogonalLoop=1;jettySize=auto;html=1;dashed=1;fontSize=7;endArrow=none;endFill=1;" parent="1" source="-7Wv61GkTQfXhzGBz33f-35" target="-7Wv61GkTQfXhzGBz33f-43" edge="1">
          <mxGeometry relative="1" as="geometry">
            <mxPoint x="340" y="760" as="targetPoint" />
            <mxPoint x="340" y="445" as="sourcePoint" />
          </mxGeometry>
        </mxCell>
        <mxCell id="-0EF0qrsKoCo8w9vOCdW-4" style="edgeStyle=orthogonalEdgeStyle;rounded=0;orthogonalLoop=1;jettySize=auto;html=1;exitX=1;exitY=0;exitDx=0;exitDy=0;fontSize=8;entryX=1;entryY=1;entryDx=0;entryDy=0;" edge="1" parent="1" source="-7Wv61GkTQfXhzGBz33f-42" target="-7Wv61GkTQfXhzGBz33f-42">
          <mxGeometry relative="1" as="geometry">
            <mxPoint x="360" y="639.9999999999999" as="targetPoint" />
            <Array as="points">
              <mxPoint x="400" y="610" />
              <mxPoint x="400" y="640" />
            </Array>
          </mxGeometry>
        </mxCell>
        <mxCell id="-7Wv61GkTQfXhzGBz33f-42" value="" style="rounded=0;whiteSpace=wrap;html=1;fontSize=7;" parent="1" vertex="1">
          <mxGeometry x="335" y="610" width="10" height="30" as="geometry" />
        </mxCell>
        <mxCell id="-0EF0qrsKoCo8w9vOCdW-1" value="" style="edgeStyle=orthogonalEdgeStyle;rounded=0;orthogonalLoop=1;jettySize=auto;html=1;dashed=1;fontSize=7;endArrow=none;endFill=1;startArrow=none;" edge="1" parent="1" source="-7Wv61GkTQfXhzGBz33f-43" target="-7Wv61GkTQfXhzGBz33f-42">
          <mxGeometry relative="1" as="geometry">
            <mxPoint x="340.0000000000001" y="760" as="targetPoint" />
            <mxPoint x="340.0000000000001" y="585" as="sourcePoint" />
          </mxGeometry>
        </mxCell>
        <mxCell id="-0EF0qrsKoCo8w9vOCdW-5" value="Обработка запроса" style="text;html=1;strokeColor=none;fillColor=none;align=center;verticalAlign=middle;whiteSpace=wrap;rounded=0;fontSize=8;" vertex="1" parent="1">
          <mxGeometry x="345" y="610" width="55" height="30" as="geometry" />
        </mxCell>
        <mxCell id="-0EF0qrsKoCo8w9vOCdW-10" style="edgeStyle=orthogonalEdgeStyle;rounded=0;orthogonalLoop=1;jettySize=auto;html=1;fontSize=8;" edge="1" parent="1" source="-0EF0qrsKoCo8w9vOCdW-6" target="-0EF0qrsKoCo8w9vOCdW-8">
          <mxGeometry relative="1" as="geometry" />
        </mxCell>
        <mxCell id="-0EF0qrsKoCo8w9vOCdW-11" value="Передача ключа доступа" style="edgeLabel;html=1;align=center;verticalAlign=middle;resizable=0;points=[];fontSize=7;" vertex="1" connectable="0" parent="-0EF0qrsKoCo8w9vOCdW-10">
          <mxGeometry x="-0.3159" relative="1" as="geometry">
            <mxPoint x="-19" as="offset" />
          </mxGeometry>
        </mxCell>
        <mxCell id="-0EF0qrsKoCo8w9vOCdW-6" value="" style="rounded=0;whiteSpace=wrap;html=1;fontSize=7;" vertex="1" parent="1">
          <mxGeometry x="335" y="660" width="10" height="30" as="geometry" />
        </mxCell>
        <mxCell id="-0EF0qrsKoCo8w9vOCdW-7" value="" style="edgeStyle=orthogonalEdgeStyle;rounded=0;orthogonalLoop=1;jettySize=auto;html=1;dashed=1;fontSize=7;endArrow=none;endFill=1;startArrow=none;" edge="1" parent="1" source="-7Wv61GkTQfXhzGBz33f-42" target="-0EF0qrsKoCo8w9vOCdW-6">
          <mxGeometry relative="1" as="geometry">
            <mxPoint x="340.0000000000001" y="760" as="targetPoint" />
            <mxPoint x="340.0000000000001" y="639.9999999999999" as="sourcePoint" />
          </mxGeometry>
        </mxCell>
        <mxCell id="-0EF0qrsKoCo8w9vOCdW-8" value="" style="rounded=0;whiteSpace=wrap;html=1;fontSize=7;" vertex="1" parent="1">
          <mxGeometry x="205" y="660" width="10" height="30" as="geometry" />
        </mxCell>
        <mxCell id="-0EF0qrsKoCo8w9vOCdW-9" value="" style="edgeStyle=orthogonalEdgeStyle;rounded=0;orthogonalLoop=1;jettySize=auto;html=1;dashed=1;fontSize=7;endArrow=none;endFill=1;startArrow=none;" edge="1" parent="1" source="-7Wv61GkTQfXhzGBz33f-31" target="-0EF0qrsKoCo8w9vOCdW-8">
          <mxGeometry relative="1" as="geometry">
            <mxPoint x="210" y="760" as="targetPoint" />
            <mxPoint x="210" y="530" as="sourcePoint" />
          </mxGeometry>
        </mxCell>
        <mxCell id="-7Wv61GkTQfXhzGBz33f-39" value="" style="rounded=0;whiteSpace=wrap;html=1;fontSize=7;" parent="1" vertex="1">
          <mxGeometry x="205" y="555" width="10" height="30" as="geometry" />
        </mxCell>
        <mxCell id="-0EF0qrsKoCo8w9vOCdW-13" value="" style="rounded=0;whiteSpace=wrap;html=1;fontSize=7;" vertex="1" parent="1">
          <mxGeometry x="205" y="720" width="10" height="30" as="geometry" />
        </mxCell>
        <mxCell id="-0EF0qrsKoCo8w9vOCdW-26" value="" style="group" vertex="1" connectable="0" parent="1">
          <mxGeometry x="230" y="880" width="95" height="90" as="geometry" />
        </mxCell>
        <mxCell id="-0EF0qrsKoCo8w9vOCdW-18" value="" style="whiteSpace=wrap;html=1;aspect=fixed;fontSize=7;" vertex="1" parent="-0EF0qrsKoCo8w9vOCdW-26">
          <mxGeometry width="80" height="80" as="geometry" />
        </mxCell>
        <mxCell id="-0EF0qrsKoCo8w9vOCdW-17" value="&lt;font size=&quot;1&quot;&gt;Сервер&lt;/font&gt;" style="whiteSpace=wrap;html=1;aspect=fixed;fontSize=7;" vertex="1" parent="-0EF0qrsKoCo8w9vOCdW-26">
          <mxGeometry x="15" y="10" width="80" height="80" as="geometry" />
        </mxCell>
        <mxCell id="-0EF0qrsKoCo8w9vOCdW-19" value="" style="endArrow=none;html=1;rounded=0;fontSize=7;exitX=1;exitY=0;exitDx=0;exitDy=0;entryX=1;entryY=0;entryDx=0;entryDy=0;" edge="1" parent="-0EF0qrsKoCo8w9vOCdW-26" source="-0EF0qrsKoCo8w9vOCdW-17" target="-0EF0qrsKoCo8w9vOCdW-18">
          <mxGeometry width="50" height="50" relative="1" as="geometry">
            <mxPoint x="110" y="30" as="sourcePoint" />
            <mxPoint x="160" y="-20" as="targetPoint" />
          </mxGeometry>
        </mxCell>
        <mxCell id="-0EF0qrsKoCo8w9vOCdW-21" value="" style="endArrow=none;html=1;rounded=0;fontSize=7;entryX=0;entryY=0;entryDx=0;entryDy=0;exitX=0;exitY=0;exitDx=0;exitDy=0;" edge="1" parent="-0EF0qrsKoCo8w9vOCdW-26" source="-0EF0qrsKoCo8w9vOCdW-17" target="-0EF0qrsKoCo8w9vOCdW-18">
          <mxGeometry width="50" height="50" relative="1" as="geometry">
            <mxPoint x="-60" y="60" as="sourcePoint" />
            <mxPoint x="-10" y="10" as="targetPoint" />
          </mxGeometry>
        </mxCell>
        <mxCell id="-0EF0qrsKoCo8w9vOCdW-22" value="" style="endArrow=none;html=1;rounded=0;fontSize=7;entryX=0;entryY=1;entryDx=0;entryDy=0;exitX=0;exitY=1;exitDx=0;exitDy=0;" edge="1" parent="-0EF0qrsKoCo8w9vOCdW-26" source="-0EF0qrsKoCo8w9vOCdW-18" target="-0EF0qrsKoCo8w9vOCdW-17">
          <mxGeometry width="50" height="50" relative="1" as="geometry">
            <mxPoint x="-40" y="150" as="sourcePoint" />
            <mxPoint x="10" y="100" as="targetPoint" />
          </mxGeometry>
        </mxCell>
        <mxCell id="-0EF0qrsKoCo8w9vOCdW-27" value="" style="group" vertex="1" connectable="0" parent="1">
          <mxGeometry x="120" y="1000" width="95" height="90" as="geometry" />
        </mxCell>
        <mxCell id="-0EF0qrsKoCo8w9vOCdW-28" value="" style="whiteSpace=wrap;html=1;aspect=fixed;fontSize=7;" vertex="1" parent="-0EF0qrsKoCo8w9vOCdW-27">
          <mxGeometry width="80" height="80" as="geometry" />
        </mxCell>
        <mxCell id="-0EF0qrsKoCo8w9vOCdW-29" value="&lt;font size=&quot;1&quot;&gt;Клиент&lt;/font&gt;" style="whiteSpace=wrap;html=1;aspect=fixed;fontSize=7;" vertex="1" parent="-0EF0qrsKoCo8w9vOCdW-27">
          <mxGeometry x="15" y="10" width="80" height="80" as="geometry" />
        </mxCell>
        <mxCell id="-0EF0qrsKoCo8w9vOCdW-30" value="" style="endArrow=none;html=1;rounded=0;fontSize=7;exitX=1;exitY=0;exitDx=0;exitDy=0;entryX=1;entryY=0;entryDx=0;entryDy=0;" edge="1" parent="-0EF0qrsKoCo8w9vOCdW-27" source="-0EF0qrsKoCo8w9vOCdW-29" target="-0EF0qrsKoCo8w9vOCdW-28">
          <mxGeometry width="50" height="50" relative="1" as="geometry">
            <mxPoint x="110" y="30" as="sourcePoint" />
            <mxPoint x="160" y="-20" as="targetPoint" />
          </mxGeometry>
        </mxCell>
        <mxCell id="-0EF0qrsKoCo8w9vOCdW-31" value="" style="endArrow=none;html=1;rounded=0;fontSize=7;entryX=0;entryY=0;entryDx=0;entryDy=0;exitX=0;exitY=0;exitDx=0;exitDy=0;" edge="1" parent="-0EF0qrsKoCo8w9vOCdW-27" source="-0EF0qrsKoCo8w9vOCdW-29" target="-0EF0qrsKoCo8w9vOCdW-28">
          <mxGeometry width="50" height="50" relative="1" as="geometry">
            <mxPoint x="-60" y="60" as="sourcePoint" />
            <mxPoint x="-10" y="10" as="targetPoint" />
          </mxGeometry>
        </mxCell>
        <mxCell id="-0EF0qrsKoCo8w9vOCdW-32" value="" style="endArrow=none;html=1;rounded=0;fontSize=7;entryX=0;entryY=1;entryDx=0;entryDy=0;exitX=0;exitY=1;exitDx=0;exitDy=0;" edge="1" parent="-0EF0qrsKoCo8w9vOCdW-27" source="-0EF0qrsKoCo8w9vOCdW-28" target="-0EF0qrsKoCo8w9vOCdW-29">
          <mxGeometry width="50" height="50" relative="1" as="geometry">
            <mxPoint x="-40" y="150" as="sourcePoint" />
            <mxPoint x="10" y="100" as="targetPoint" />
          </mxGeometry>
        </mxCell>
        <mxCell id="-0EF0qrsKoCo8w9vOCdW-33" value="" style="group" vertex="1" connectable="0" parent="1">
          <mxGeometry x="240" y="1000" width="95" height="90" as="geometry" />
        </mxCell>
        <mxCell id="-0EF0qrsKoCo8w9vOCdW-34" value="" style="whiteSpace=wrap;html=1;aspect=fixed;fontSize=7;" vertex="1" parent="-0EF0qrsKoCo8w9vOCdW-33">
          <mxGeometry width="80" height="80" as="geometry" />
        </mxCell>
        <mxCell id="-0EF0qrsKoCo8w9vOCdW-35" value="&lt;font size=&quot;1&quot;&gt;Клиент&lt;/font&gt;" style="whiteSpace=wrap;html=1;aspect=fixed;fontSize=7;" vertex="1" parent="-0EF0qrsKoCo8w9vOCdW-33">
          <mxGeometry x="15" y="10" width="80" height="80" as="geometry" />
        </mxCell>
        <mxCell id="-0EF0qrsKoCo8w9vOCdW-36" value="" style="endArrow=none;html=1;rounded=0;fontSize=7;exitX=1;exitY=0;exitDx=0;exitDy=0;entryX=1;entryY=0;entryDx=0;entryDy=0;" edge="1" parent="-0EF0qrsKoCo8w9vOCdW-33" source="-0EF0qrsKoCo8w9vOCdW-35" target="-0EF0qrsKoCo8w9vOCdW-34">
          <mxGeometry width="50" height="50" relative="1" as="geometry">
            <mxPoint x="110" y="30" as="sourcePoint" />
            <mxPoint x="160" y="-20" as="targetPoint" />
          </mxGeometry>
        </mxCell>
        <mxCell id="-0EF0qrsKoCo8w9vOCdW-37" value="" style="endArrow=none;html=1;rounded=0;fontSize=7;entryX=0;entryY=0;entryDx=0;entryDy=0;exitX=0;exitY=0;exitDx=0;exitDy=0;" edge="1" parent="-0EF0qrsKoCo8w9vOCdW-33" source="-0EF0qrsKoCo8w9vOCdW-35" target="-0EF0qrsKoCo8w9vOCdW-34">
          <mxGeometry width="50" height="50" relative="1" as="geometry">
            <mxPoint x="-60" y="60" as="sourcePoint" />
            <mxPoint x="-10" y="10" as="targetPoint" />
          </mxGeometry>
        </mxCell>
        <mxCell id="-0EF0qrsKoCo8w9vOCdW-38" value="" style="endArrow=none;html=1;rounded=0;fontSize=7;entryX=0;entryY=1;entryDx=0;entryDy=0;exitX=0;exitY=1;exitDx=0;exitDy=0;" edge="1" parent="-0EF0qrsKoCo8w9vOCdW-33" source="-0EF0qrsKoCo8w9vOCdW-34" target="-0EF0qrsKoCo8w9vOCdW-35">
          <mxGeometry width="50" height="50" relative="1" as="geometry">
            <mxPoint x="-40" y="150" as="sourcePoint" />
            <mxPoint x="10" y="100" as="targetPoint" />
          </mxGeometry>
        </mxCell>
        <mxCell id="-0EF0qrsKoCo8w9vOCdW-39" value="" style="group" vertex="1" connectable="0" parent="1">
          <mxGeometry x="360" y="1000" width="95" height="90" as="geometry" />
        </mxCell>
        <mxCell id="-0EF0qrsKoCo8w9vOCdW-40" value="" style="whiteSpace=wrap;html=1;aspect=fixed;fontSize=7;" vertex="1" parent="-0EF0qrsKoCo8w9vOCdW-39">
          <mxGeometry width="80" height="80" as="geometry" />
        </mxCell>
        <mxCell id="-0EF0qrsKoCo8w9vOCdW-41" value="&lt;font size=&quot;1&quot;&gt;Клиент&lt;/font&gt;" style="whiteSpace=wrap;html=1;aspect=fixed;fontSize=7;" vertex="1" parent="-0EF0qrsKoCo8w9vOCdW-39">
          <mxGeometry x="15" y="10" width="80" height="80" as="geometry" />
        </mxCell>
        <mxCell id="-0EF0qrsKoCo8w9vOCdW-42" value="" style="endArrow=none;html=1;rounded=0;fontSize=7;exitX=1;exitY=0;exitDx=0;exitDy=0;entryX=1;entryY=0;entryDx=0;entryDy=0;" edge="1" parent="-0EF0qrsKoCo8w9vOCdW-39" source="-0EF0qrsKoCo8w9vOCdW-41" target="-0EF0qrsKoCo8w9vOCdW-40">
          <mxGeometry width="50" height="50" relative="1" as="geometry">
            <mxPoint x="110" y="30" as="sourcePoint" />
            <mxPoint x="160" y="-20" as="targetPoint" />
          </mxGeometry>
        </mxCell>
        <mxCell id="-0EF0qrsKoCo8w9vOCdW-43" value="" style="endArrow=none;html=1;rounded=0;fontSize=7;entryX=0;entryY=0;entryDx=0;entryDy=0;exitX=0;exitY=0;exitDx=0;exitDy=0;" edge="1" parent="-0EF0qrsKoCo8w9vOCdW-39" source="-0EF0qrsKoCo8w9vOCdW-41" target="-0EF0qrsKoCo8w9vOCdW-40">
          <mxGeometry width="50" height="50" relative="1" as="geometry">
            <mxPoint x="-60" y="60" as="sourcePoint" />
            <mxPoint x="-10" y="10" as="targetPoint" />
          </mxGeometry>
        </mxCell>
        <mxCell id="-0EF0qrsKoCo8w9vOCdW-44" value="" style="endArrow=none;html=1;rounded=0;fontSize=7;entryX=0;entryY=1;entryDx=0;entryDy=0;exitX=0;exitY=1;exitDx=0;exitDy=0;" edge="1" parent="-0EF0qrsKoCo8w9vOCdW-39" source="-0EF0qrsKoCo8w9vOCdW-40" target="-0EF0qrsKoCo8w9vOCdW-41">
          <mxGeometry width="50" height="50" relative="1" as="geometry">
            <mxPoint x="-40" y="150" as="sourcePoint" />
            <mxPoint x="10" y="100" as="targetPoint" />
          </mxGeometry>
        </mxCell>
        <mxCell id="-0EF0qrsKoCo8w9vOCdW-45" style="rounded=0;orthogonalLoop=1;jettySize=auto;html=1;entryX=0.5;entryY=0;entryDx=0;entryDy=0;fontSize=8;dashed=1;" edge="1" parent="1" target="-0EF0qrsKoCo8w9vOCdW-28">
          <mxGeometry relative="1" as="geometry">
            <mxPoint x="230" y="960" as="sourcePoint" />
          </mxGeometry>
        </mxCell>
        <mxCell id="-0EF0qrsKoCo8w9vOCdW-46" style="edgeStyle=none;rounded=0;orthogonalLoop=1;jettySize=auto;html=1;entryX=0.5;entryY=0;entryDx=0;entryDy=0;fontSize=8;dashed=1;" edge="1" parent="1" source="-0EF0qrsKoCo8w9vOCdW-17" target="-0EF0qrsKoCo8w9vOCdW-40">
          <mxGeometry relative="1" as="geometry" />
        </mxCell>
        <mxCell id="-0EF0qrsKoCo8w9vOCdW-47" style="edgeStyle=none;rounded=0;orthogonalLoop=1;jettySize=auto;html=1;entryX=0.5;entryY=0;entryDx=0;entryDy=0;fontSize=8;dashed=1;" edge="1" parent="1" source="-0EF0qrsKoCo8w9vOCdW-17" target="-0EF0qrsKoCo8w9vOCdW-34">
          <mxGeometry relative="1" as="geometry" />
        </mxCell>
        <mxCell id="-0EF0qrsKoCo8w9vOCdW-48" value="InvMan.Desktop.UI.dll" style="rounded=0;whiteSpace=wrap;html=1;fontSize=8;" vertex="1" parent="1">
          <mxGeometry x="225" y="1110" width="120" height="29" as="geometry" />
        </mxCell>
        <mxCell id="-0EF0qrsKoCo8w9vOCdW-49" style="edgeStyle=none;rounded=0;orthogonalLoop=1;jettySize=auto;html=1;entryX=0;entryY=0.75;entryDx=0;entryDy=0;fontSize=8;endArrow=none;endFill=0;" edge="1" parent="1" source="-0EF0qrsKoCo8w9vOCdW-29" target="-0EF0qrsKoCo8w9vOCdW-48">
          <mxGeometry relative="1" as="geometry" />
        </mxCell>
        <mxCell id="-0EF0qrsKoCo8w9vOCdW-50" style="edgeStyle=none;rounded=0;orthogonalLoop=1;jettySize=auto;html=1;entryX=0.5;entryY=0;entryDx=0;entryDy=0;fontSize=8;endArrow=none;endFill=0;" edge="1" parent="1" source="-0EF0qrsKoCo8w9vOCdW-35" target="-0EF0qrsKoCo8w9vOCdW-48">
          <mxGeometry relative="1" as="geometry" />
        </mxCell>
        <mxCell id="-0EF0qrsKoCo8w9vOCdW-51" style="edgeStyle=none;rounded=0;orthogonalLoop=1;jettySize=auto;html=1;entryX=1;entryY=0.5;entryDx=0;entryDy=0;fontSize=8;endArrow=none;endFill=0;" edge="1" parent="1" source="-0EF0qrsKoCo8w9vOCdW-41" target="-0EF0qrsKoCo8w9vOCdW-48">
          <mxGeometry relative="1" as="geometry" />
        </mxCell>
      </root>
    </mxGraphModel>
  </diagram>
</mxfile>
